<svg width="97" height="22" viewBox="0 0 97 22" fill="none" xmlns="http://www.w3.org/2000/svg">
<path d="M5.31934 21.7744C5.01465 21.6475 4.7015 21.4993 4.37988 21.3301C4.06673 21.1608 3.69857 20.8519 3.27539 20.4033C2.86068 19.9463 2.47135 19.3581 2.10742 18.6387C1.24414 16.9629 0.8125 15.0036 0.8125 12.7607C0.8125 10.391 1.44727 8.28776 2.7168 6.45117C3.51237 5.31706 4.40104 4.52995 5.38281 4.08984C5.88216 3.86979 6.39844 3.75977 6.93164 3.75977C7.47331 3.75977 7.94727 3.86133 8.35352 4.06445C8.76823 4.25911 9.10677 4.49609 9.36914 4.77539C9.63151 5.04622 9.82194 5.32129 9.94043 5.60059C10.0674 5.87988 10.1309 6.17611 10.1309 6.48926C10.1309 6.79395 10.0293 7.12826 9.82617 7.49219C9.62305 7.85612 9.37337 8.19043 9.07715 8.49512C8.78939 8.7998 8.47624 9.0918 8.1377 9.37109C7.79915 9.64193 7.4987 9.92122 7.23633 10.209C6.62695 11.4701 6.32227 12.6973 6.32227 13.8906C6.32227 15.1432 6.64811 16.0954 7.2998 16.7471C7.50293 16.9502 7.73145 17.0983 7.98535 17.1914C8.9502 16.8783 10.3509 15.6807 12.1875 13.5986C13.5586 11.9567 14.5277 10.7549 15.0947 9.99316L16.5293 8C17.8919 6.03646 19.2884 4.73307 20.7188 4.08984C21.2689 3.83594 21.7936 3.71322 22.293 3.72168C22.8008 3.73014 23.2028 3.79362 23.499 3.91211C23.8037 4.02214 24.0534 4.17025 24.248 4.35645C24.6204 4.72884 24.8066 5.15202 24.8066 5.62598C24.8066 6.49772 24.5104 7.27637 23.918 7.96191C22.1406 9.90853 20.7865 11.3558 19.8555 12.3037L17.2148 14.8809L14.8027 17.0898C11.0872 20.3483 8.50586 21.9775 7.05859 21.9775C6.21224 21.9775 5.63249 21.9098 5.31934 21.7744ZM39.1904 11.6689C39.5967 11.6689 39.7998 11.8975 39.7998 12.3545C39.7998 12.6592 39.694 13.0443 39.4824 13.5098C39.2793 13.9668 38.9831 14.3984 38.5938 14.8047C38.2044 15.2025 37.7559 15.6172 37.248 16.0488C36.7487 16.4805 36.1605 16.9333 35.4834 17.4072C34.8148 17.8812 34.0742 18.3509 33.2617 18.8164C32.4492 19.2819 31.5859 19.7008 30.6719 20.0732C28.6491 20.9027 26.6898 21.3174 24.7939 21.3174C23.3467 21.3174 22.0814 20.9408 20.998 20.1875C19.8639 19.4004 19.2969 18.444 19.2969 17.3184C19.2969 15.5495 20.249 13.8695 22.1533 12.2783C23.7952 10.9072 25.7292 9.84505 27.9551 9.0918C29.3092 8.63477 30.4561 8.40625 31.3955 8.40625C32.1572 8.40625 32.8005 8.59245 33.3252 8.96484C33.8838 9.37109 34.1631 9.91699 34.1631 10.6025C34.1631 11.6774 33.3125 12.8665 31.6113 14.1699C31.3405 14.3815 31.0951 14.5592 30.875 14.7031L30.418 15.0078C29.5716 15.6003 28.2852 16.2646 26.5586 17.001C27.0918 17.2803 27.5869 17.4199 28.0439 17.4199C28.5094 17.4199 28.9242 17.3649 29.2881 17.2549C29.6605 17.1449 30.0794 16.9883 30.5449 16.7852C31.0104 16.582 31.5055 16.3408 32.0303 16.0615C32.5635 15.7738 33.1009 15.4606 33.6426 15.1221C34.8529 14.3688 35.9023 13.5986 36.791 12.8115C37.2565 12.3799 37.849 12.0371 38.5684 11.7832C38.8053 11.707 39.0127 11.6689 39.1904 11.6689ZM25.1875 15.2363L25.8857 14.8809C26.1143 14.7624 26.3174 14.6523 26.4951 14.5508C28.2048 13.569 29.1781 12.9639 29.415 12.7354C29.652 12.5068 29.7705 12.3503 29.7705 12.2656C29.7705 12.1725 29.7451 12.0667 29.6943 11.9482C29.6436 11.8298 29.5758 11.724 29.4912 11.6309C29.2881 11.3939 29.0723 11.2754 28.8438 11.2754C28.6152 11.2754 28.3613 11.3177 28.082 11.4023C27.8112 11.487 27.5361 11.6055 27.2568 11.7578C26.9775 11.9017 26.7067 12.0794 26.4443 12.291C26.1904 12.4941 25.9661 12.7142 25.7715 12.9512C25.3229 13.4844 25.0986 13.9456 25.0986 14.335C25.0986 14.7243 25.1283 15.0247 25.1875 15.2363ZM51.7461 12.0371C52.2878 12.0371 52.5586 12.2614 52.5586 12.71C52.5586 13.2601 52.2285 13.916 51.5684 14.6777C50.4766 15.9473 49.1901 17.1829 47.709 18.3848C45.2969 20.3145 43.1429 21.2793 41.2471 21.2793C39.8844 21.2793 38.7673 20.6868 37.8955 19.502C36.9899 18.2663 36.5371 16.6074 36.5371 14.5254C36.5371 11.7917 37.8701 8.77018 40.5361 5.46094C42.2288 3.35352 43.8242 1.92318 45.3223 1.16992C45.7878 0.932943 46.1432 0.814453 46.3887 0.814453C46.6426 0.814453 46.8711 0.856771 47.0742 0.941406C47.2858 1.01758 47.4805 1.1276 47.6582 1.27148C48.0729 1.61849 48.2803 2.03743 48.2803 2.52832C48.2803 3.01921 48.1449 3.60319 47.874 4.28027C47.6032 4.94889 47.2096 5.66406 46.6934 6.42578C45.6016 8.04232 44.1247 9.59115 42.2627 11.0723C41.7803 11.9948 41.5391 13.1035 41.5391 14.3984C41.5391 14.9824 41.7253 15.5326 42.0977 16.0488C42.4785 16.5651 42.8975 16.8232 43.3545 16.8232C43.9808 16.8232 45.1784 16.1758 46.9473 14.8809L49.207 13.1416C50.1296 12.4053 50.9759 12.0371 51.7461 12.0371ZM65.2158 14.6143C65.2158 15.4691 65.5924 15.8965 66.3457 15.8965C67.099 15.8965 68.4023 15.1729 70.2559 13.7256L71.373 12.8115C72.1094 12.2021 72.8118 11.8975 73.4805 11.8975C73.7259 11.8975 73.8867 11.9652 73.9629 12.1006C74.0391 12.2275 74.0771 12.3926 74.0771 12.5957C74.0771 12.7904 74.0391 12.9977 73.9629 13.2178C73.8952 13.4294 73.7979 13.6536 73.6709 13.8906C73.3916 14.4238 73.1208 14.8385 72.8584 15.1348C72.596 15.431 72.2871 15.7399 71.9316 16.0615C71.5846 16.3747 71.1699 16.7301 70.6875 17.1279C70.2051 17.5173 69.6719 17.9193 69.0879 18.334C68.5039 18.7402 67.9157 19.1126 67.3232 19.4512C65.986 20.2298 64.8857 20.6191 64.0225 20.6191C62.9899 20.6191 62.1816 20.2552 61.5977 19.5273C61.0475 18.8503 60.7386 17.9447 60.6709 16.8105C59.1475 18.3763 57.5352 19.5824 55.834 20.4287C54.793 20.945 53.9128 21.2031 53.1934 21.2031C52.474 21.2031 51.8434 21.1185 51.3018 20.9492C50.7601 20.7715 50.2861 20.5091 49.8799 20.1621C48.9997 19.4258 48.5596 18.4017 48.5596 17.0898C48.5596 15.2109 49.2324 13.3997 50.5781 11.6562C51.0013 11.1146 51.4753 10.6406 52 10.2344C53.1341 9.52344 54.3359 9.16797 55.6055 9.16797C56.1641 9.16797 56.5618 9.34147 56.7988 9.68848C56.8919 9.82389 56.9385 10.0016 56.9385 10.2217C56.9385 10.4333 56.875 10.6829 56.748 10.9707C56.6296 11.25 56.4814 11.5462 56.3037 11.8594C56.126 12.1641 55.9271 12.4814 55.707 12.8115C55.4954 13.1416 55.3008 13.4632 55.123 13.7764C54.6999 14.5212 54.4883 15.0586 54.4883 15.3887C54.4883 15.7103 54.5814 15.9473 54.7676 16.0996C54.9538 16.252 55.1823 16.3281 55.4531 16.3281C56.054 16.3281 56.5661 16.1842 56.9893 15.8965C57.4124 15.6003 57.8314 15.2617 58.2461 14.8809L59.4395 13.7129L60.5947 12.5195C61.4157 11.6816 62.0378 11.1611 62.4609 10.958C62.8926 10.7464 63.2057 10.666 63.4004 10.7168C63.5951 10.7676 63.7939 10.8607 63.9971 10.9961C64.2002 11.123 64.3991 11.2796 64.5938 11.4658C65.0508 11.9059 65.3047 12.3037 65.3555 12.6592C65.3724 12.8877 65.3512 13.2305 65.292 13.6875C65.2412 14.1361 65.2158 14.445 65.2158 14.6143ZM76.6416 21.7744C76.3369 21.6475 76.0238 21.4993 75.7021 21.3301C75.389 21.1608 75.0208 20.8519 74.5977 20.4033C74.1829 19.9463 73.7936 19.3581 73.4297 18.6387C72.5664 16.9629 72.1348 15.0036 72.1348 12.7607C72.1348 10.391 72.7695 8.28776 74.0391 6.45117C74.8346 5.31706 75.7233 4.52995 76.7051 4.08984C77.2044 3.86979 77.7207 3.75977 78.2539 3.75977C78.7956 3.75977 79.2695 3.86133 79.6758 4.06445C80.0905 4.25911 80.429 4.49609 80.6914 4.77539C80.9538 5.04622 81.1442 5.32129 81.2627 5.60059C81.3896 5.87988 81.4531 6.17611 81.4531 6.48926C81.4531 6.79395 81.3516 7.12826 81.1484 7.49219C80.9453 7.85612 80.6956 8.19043 80.3994 8.49512C80.1117 8.7998 79.7985 9.0918 79.46 9.37109C79.1214 9.64193 78.821 9.92122 78.5586 10.209C77.9492 11.4701 77.6445 12.6973 77.6445 13.8906C77.6445 15.1432 77.9704 16.0954 78.6221 16.7471C78.8252 16.9502 79.0537 17.0983 79.3076 17.1914C80.2725 16.8783 81.6732 15.6807 83.5098 13.5986C84.8809 11.9567 85.8499 10.7549 86.417 9.99316L87.8516 8C89.2142 6.03646 90.6107 4.73307 92.041 4.08984C92.5911 3.83594 93.1159 3.71322 93.6152 3.72168C94.123 3.73014 94.5251 3.79362 94.8213 3.91211C95.126 4.02214 95.3757 4.17025 95.5703 4.35645C95.9427 4.72884 96.1289 5.15202 96.1289 5.62598C96.1289 6.49772 95.8327 7.27637 95.2402 7.96191C93.4629 9.90853 92.1087 11.3558 91.1777 12.3037L88.5371 14.8809L86.125 17.0898C82.4095 20.3483 79.8281 21.9775 78.3809 21.9775C77.5345 21.9775 76.9548 21.9098 76.6416 21.7744Z" fill="white"/>
</svg>
