<svg width="12" height="24" viewBox="0 0 12 24" fill="none" xmlns="http://www.w3.org/2000/svg">
<path d="M1.95001 23.6667C2.199 23.6675 2.44501 23.6125 2.66998 23.5058C2.89495 23.3991 3.09314 23.2434 3.25001 23.05L11.3 13.05C11.5451 12.7518 11.6792 12.3777 11.6792 11.9917C11.6792 11.6056 11.5451 11.2315 11.3 10.9333L2.96667 0.933325C2.68378 0.592964 2.27726 0.378923 1.83655 0.33829C1.39584 0.297657 0.957035 0.433761 0.616673 0.716658C0.276313 0.999556 0.062273 1.40607 0.0216398 1.84679C-0.0189934 2.2875 0.117109 2.7263 0.400007 3.06666L7.85001 12L0.650008 20.9333C0.446203 21.178 0.316741 21.4759 0.276941 21.7918C0.237143 22.1077 0.288671 22.4284 0.42543 22.7159C0.56219 23.0035 0.778457 23.2458 1.04864 23.4143C1.31882 23.5828 1.63162 23.6704 1.95001 23.6667Z" fill="#FCFCFC"/>
</svg>
