<svg width="12" height="24" viewBox="0 0 12 24" fill="none" xmlns="http://www.w3.org/2000/svg">
<path d="M10.05 23.6667C9.80102 23.6675 9.555 23.6125 9.33003 23.5058C9.10507 23.3991 8.90687 23.2434 8.75001 23.05L0.700009 13.05C0.454872 12.7518 0.320862 12.3777 0.320862 11.9917C0.320862 11.6056 0.454872 11.2315 0.700009 10.9333L9.03334 0.933325C9.31624 0.592964 9.72276 0.378923 10.1635 0.33829C10.6042 0.297657 11.043 0.433761 11.3833 0.716658C11.7237 0.999556 11.9377 1.40607 11.9784 1.84679C12.019 2.2875 11.8829 2.7263 11.6 3.06666L4.15001 12L11.35 20.9333C11.5538 21.178 11.6833 21.4759 11.7231 21.7918C11.7629 22.1077 11.7113 22.4284 11.5746 22.7159C11.4378 23.0035 11.2216 23.2458 10.9514 23.4143C10.6812 23.5828 10.3684 23.6704 10.05 23.6667Z" fill="white"/>
</svg>
