<svg width="34" height="32" viewBox="0 0 34 32" fill="none" xmlns="http://www.w3.org/2000/svg">
<path fill-rule="evenodd" clip-rule="evenodd" d="M2.33333 0C1.8913 0 1.46738 0.175595 1.15482 0.488155C0.842259 0.800716 0.666664 1.22464 0.666664 1.66667C0.666664 2.10869 0.842259 2.53262 1.15482 2.84518C1.46738 3.15774 1.8913 3.33333 2.33333 3.33333H5.2L5.70666 5.36667L9.03166 21.9933C9.10721 22.3713 9.31142 22.7114 9.60953 22.9557C9.90765 23.2 10.2812 23.3335 10.6667 23.3333H29C29.3852 23.3331 29.7583 23.1995 30.0561 22.9552C30.3539 22.7109 30.5578 22.371 30.6333 21.9933L33.9667 5.32667C34.015 5.08496 34.0091 4.83555 33.9494 4.5964C33.8897 4.35725 33.7777 4.13432 33.6215 3.94366C33.4653 3.75301 33.2687 3.59938 33.0459 3.49384C32.8232 3.3883 32.5798 3.33348 32.3333 3.33333H8.63333L8.11666 1.26167C8.02638 0.901256 7.81825 0.581348 7.52534 0.352759C7.23244 0.12417 6.87154 9.76739e-06 6.5 0H2.33333ZM25.6667 25C24.7826 25 23.9348 25.3512 23.3096 25.9763C22.6845 26.6014 22.3333 27.4493 22.3333 28.3333C22.3333 29.2174 22.6845 30.0652 23.3096 30.6904C23.9348 31.3155 24.7826 31.6667 25.6667 31.6667C26.5507 31.6667 27.3986 31.3155 28.0237 30.6904C28.6488 30.0652 29 29.2174 29 28.3333C29 27.4493 28.6488 26.6014 28.0237 25.9763C27.3986 25.3512 26.5507 25 25.6667 25ZM14 25C13.1159 25 12.2681 25.3512 11.643 25.9763C11.0179 26.6014 10.6667 27.4493 10.6667 28.3333C10.6667 29.2174 11.0179 30.0652 11.643 30.6904C12.2681 31.3155 13.1159 31.6667 14 31.6667C14.8841 31.6667 15.7319 31.3155 16.357 30.6904C16.9821 30.0652 17.3333 29.2174 17.3333 28.3333C17.3333 27.4493 16.9821 26.6014 16.357 25.9763C15.7319 25.3512 14.8841 25 14 25Z" fill="#212121" fill-opacity="0.7"/>
</svg>
