<svg width="31" height="29" viewBox="0 0 31 29" fill="none" xmlns="http://www.w3.org/2000/svg">
<path fill-rule="evenodd" clip-rule="evenodd" d="M2 0.5C1.60218 0.5 1.22064 0.658035 0.93934 0.93934C0.658035 1.22064 0.5 1.60218 0.5 2C0.5 2.39782 0.658035 2.77936 0.93934 3.06066C1.22064 3.34196 1.60218 3.5 2 3.5H4.58L5.036 5.33L8.0285 20.294C8.09649 20.6342 8.28029 20.9403 8.54858 21.1601C8.81688 21.38 9.15311 21.5001 9.5 21.5H26C26.3466 21.4998 26.6825 21.3795 26.9505 21.1597C27.2185 20.9398 27.4021 20.6339 27.47 20.294L30.47 5.294C30.5135 5.07647 30.5082 4.852 30.4545 4.63676C30.4007 4.42153 30.2999 4.22089 30.1593 4.0493C30.0187 3.87771 29.8418 3.73944 29.6414 3.64446C29.4409 3.54947 29.2218 3.50013 29 3.5H7.67L7.205 1.6355C7.12374 1.31113 6.93643 1.02321 6.67281 0.817483C6.4092 0.611753 6.08439 0.500009 5.75 0.5H2ZM23 23C22.2044 23 21.4413 23.3161 20.8787 23.8787C20.3161 24.4413 20 25.2044 20 26C20 26.7956 20.3161 27.5587 20.8787 28.1213C21.4413 28.6839 22.2044 29 23 29C23.7957 29 24.5587 28.6839 25.1213 28.1213C25.6839 27.5587 26 26.7956 26 26C26 25.2044 25.6839 24.4413 25.1213 23.8787C24.5587 23.3161 23.7957 23 23 23ZM12.5 23C11.7044 23 10.9413 23.3161 10.3787 23.8787C9.81607 24.4413 9.5 25.2044 9.5 26C9.5 26.7956 9.81607 27.5587 10.3787 28.1213C10.9413 28.6839 11.7044 29 12.5 29C13.2957 29 14.0587 28.6839 14.6213 28.1213C15.1839 27.5587 15.5 26.7956 15.5 26C15.5 25.2044 15.1839 24.4413 14.6213 23.8787C14.0587 23.3161 13.2957 23 12.5 23Z" fill="white" fill-opacity="0.9"/>
</svg>
