<svg width="30" height="29" viewBox="0 0 30 29" fill="none" xmlns="http://www.w3.org/2000/svg">
<path fill-rule="evenodd" clip-rule="evenodd" d="M1.91665 0.375C1.52987 0.375 1.15894 0.528645 0.885449 0.802136C0.611958 1.07563 0.458313 1.44656 0.458313 1.83333C0.458313 2.22011 0.611958 2.59104 0.885449 2.86453C1.15894 3.13802 1.52987 3.29167 1.91665 3.29167H4.42498L4.86831 5.07083L7.77769 19.6192C7.84379 19.9499 8.02248 20.2475 8.28333 20.4613C8.54417 20.675 8.87105 20.7918 9.20831 20.7917H25.25C25.587 20.7915 25.9135 20.6745 26.1741 20.4608C26.4346 20.247 26.6131 19.9496 26.6792 19.6192L29.5958 5.03583C29.6381 4.82434 29.6329 4.60611 29.5807 4.39685C29.5285 4.1876 29.4305 3.99253 29.2938 3.82571C29.1571 3.65888 28.9851 3.52446 28.7902 3.43211C28.5953 3.33976 28.3823 3.2918 28.1667 3.29167H7.42915L6.97706 1.47896C6.89806 1.1636 6.71595 0.883679 6.45966 0.683664C6.20336 0.483649 5.88758 0.375009 5.56248 0.375H1.91665ZM22.3333 22.25C21.5598 22.25 20.8179 22.5573 20.2709 23.1043C19.7239 23.6513 19.4167 24.3931 19.4167 25.1667C19.4167 25.9402 19.7239 26.6821 20.2709 27.2291C20.8179 27.776 21.5598 28.0833 22.3333 28.0833C23.1069 28.0833 23.8487 27.776 24.3957 27.2291C24.9427 26.6821 25.25 25.9402 25.25 25.1667C25.25 24.3931 24.9427 23.6513 24.3957 23.1043C23.8487 22.5573 23.1069 22.25 22.3333 22.25ZM12.125 22.25C11.3514 22.25 10.6096 22.5573 10.0626 23.1043C9.5156 23.6513 9.20831 24.3931 9.20831 25.1667C9.20831 25.9402 9.5156 26.6821 10.0626 27.2291C10.6096 27.776 11.3514 28.0833 12.125 28.0833C12.8985 28.0833 13.6404 27.776 14.1874 27.2291C14.7344 26.6821 15.0416 25.9402 15.0416 25.1667C15.0416 24.3931 14.7344 23.6513 14.1874 23.1043C13.6404 22.5573 12.8985 22.25 12.125 22.25Z" fill="white" fill-opacity="0.9"/>
</svg>
