<svg width="30" height="30" viewBox="0 0 30 30" fill="none" xmlns="http://www.w3.org/2000/svg">
<path d="M15.0001 0.374042C12.4598 0.374774 9.96354 1.03697 7.7569 2.29544C5.55026 3.55392 3.70935 5.3653 2.41536 7.55131C1.12137 9.73731 0.418907 12.2226 0.377104 14.7625C0.3353 17.3025 0.9556 19.8095 2.17695 22.0369L0.973905 26.2424C0.863369 26.6283 0.858108 27.0367 0.958668 27.4253C1.05923 27.8139 1.26194 28.1685 1.54578 28.4524C1.82962 28.7362 2.18424 28.9389 2.57284 29.0394C2.96145 29.14 3.36987 29.1347 3.75575 29.0241L7.9624 27.8246C9.91753 28.8973 12.092 29.5087 14.3197 29.6121C16.5474 29.7155 18.7692 29.3082 20.8153 28.4213C22.8614 27.5344 24.6776 26.1914 26.1251 24.4949C27.5725 22.7985 28.613 20.7935 29.1668 18.6333C29.7206 16.4731 29.7731 14.2149 29.3204 12.0313C28.8676 9.84769 27.9216 7.79651 26.5546 6.03458C25.1876 4.27265 23.4358 2.84662 21.4331 1.86551C19.4305 0.884404 17.23 0.374199 15 0.373901L15.0001 0.374042ZM19.5001 18.374H10.5001C10.2018 18.374 9.91561 18.2555 9.70463 18.0445C9.49365 17.8336 9.37512 17.5474 9.37512 17.249C9.37512 16.9507 9.49365 16.6645 9.70463 16.4535C9.91561 16.2426 10.2018 16.124 10.5001 16.124H19.5001C19.7985 16.124 20.0846 16.2426 20.2956 16.4535C20.5066 16.6645 20.6251 16.9507 20.6251 17.249C20.6251 17.5474 20.5066 17.8336 20.2956 18.0445C20.0846 18.2555 19.7985 18.374 19.5001 18.374ZM19.5001 13.874H10.5001C10.2018 13.874 9.91561 13.7555 9.70463 13.5445C9.49365 13.3336 9.37512 13.0474 9.37512 12.749C9.37512 12.4507 9.49365 12.1645 9.70463 11.9535C9.91561 11.7426 10.2018 11.624 10.5001 11.624H19.5001C19.7985 11.624 20.0846 11.7426 20.2956 11.9535C20.5066 12.1645 20.6251 12.4507 20.6251 12.749C20.6251 13.0474 20.5066 13.3336 20.2956 13.5445C20.0846 13.7555 19.7985 13.874 19.5001 13.874Z" fill="white" fill-opacity="0.9"/>
</svg>
