<svg width="34" height="34" viewBox="0 0 34 34" fill="none" xmlns="http://www.w3.org/2000/svg">
<path d="M17.0002 0.748935C14.1776 0.749749 11.4039 1.48552 8.95213 2.88383C6.50031 4.28213 4.45485 6.29478 3.01709 8.72367C1.57932 11.1526 0.798802 13.914 0.752354 16.7361C0.705906 19.5583 1.39513 22.3439 2.75219 24.8188L1.41547 29.4916C1.29265 29.9204 1.2868 30.3742 1.39854 30.8059C1.51027 31.2377 1.73551 31.6317 2.05089 31.9471C2.36626 32.2624 2.76028 32.4877 3.19207 32.5994C3.62385 32.7111 4.07766 32.7052 4.5064 32.5824L9.18047 31.2496C11.3528 32.4414 13.769 33.1208 16.2441 33.2357C18.7193 33.3506 21.188 32.898 23.4614 31.9126C25.7349 30.9271 27.7529 29.4349 29.3612 27.5499C30.9695 25.665 32.1255 23.4373 32.7409 21.037C33.3562 18.6368 33.4146 16.1277 32.9116 13.7015C32.4085 11.2752 31.3573 8.99613 29.8384 7.03843C28.3195 5.08072 26.3731 3.49624 24.1479 2.40612C21.9228 1.316 19.4778 0.74911 17 0.748779L17.0002 0.748935ZM22.0002 20.7489H12.0002C11.6686 20.7489 11.3507 20.6172 11.1163 20.3828C10.8819 20.1484 10.7502 19.8305 10.7502 19.4989C10.7502 19.1674 10.8819 18.8495 11.1163 18.6151C11.3507 18.3806 11.6686 18.2489 12.0002 18.2489H22.0002C22.3317 18.2489 22.6496 18.3806 22.884 18.6151C23.1185 18.8495 23.2502 19.1674 23.2502 19.4989C23.2502 19.8305 23.1185 20.1484 22.884 20.3828C22.6496 20.6172 22.3317 20.7489 22.0002 20.7489ZM22.0002 15.7489H12.0002C11.6686 15.7489 11.3507 15.6172 11.1163 15.3828C10.8819 15.1484 10.7502 14.8305 10.7502 14.4989C10.7502 14.1674 10.8819 13.8495 11.1163 13.6151C11.3507 13.3806 11.6686 13.2489 12.0002 13.2489H22.0002C22.3317 13.2489 22.6496 13.3806 22.884 13.6151C23.1185 13.8495 23.2502 14.1674 23.2502 14.4989C23.2502 14.8305 23.1185 15.1484 22.884 15.3828C22.6496 15.6172 22.3317 15.7489 22.0002 15.7489Z" fill="#212121" fill-opacity="0.7"/>
</svg>
