<svg width="40" height="30" viewBox="0 0 40 30" fill="none" xmlns="http://www.w3.org/2000/svg">
<path d="M37.5667 4.58332H2.43333C1.9913 4.58332 1.56738 4.36383 1.25482 3.97313C0.942258 3.58243 0.766663 3.05252 0.766663 2.49999C0.766663 1.94745 0.942258 1.41755 1.25482 1.02685C1.56738 0.63615 1.9913 0.416656 2.43333 0.416656H37.5667C38.0087 0.416656 38.4326 0.63615 38.7452 1.02685C39.0577 1.41755 39.2333 1.94745 39.2333 2.49999C39.2333 3.05252 39.0577 3.58243 38.7452 3.97313C38.4326 4.36383 38.0087 4.58332 37.5667 4.58332Z" fill="white"/>
<path d="M25.2833 16.2499H2.43333C1.9913 16.2499 1.56738 16.0305 1.25482 15.6398C0.942258 15.2491 0.766663 14.7191 0.766663 14.1666C0.766663 13.6141 0.942258 13.0842 1.25482 12.6935C1.56738 12.3028 1.9913 12.0833 2.43333 12.0833H25.2833C25.7254 12.0833 26.1493 12.3028 26.4618 12.6935C26.7744 13.0842 26.95 13.6141 26.95 14.1666C26.95 14.7191 26.7744 15.2491 26.4618 15.6398C26.1493 16.0305 25.7254 16.2499 25.2833 16.2499Z" fill="white"/>
<path d="M12.9 27.9166H2.43333C1.9913 27.9166 1.56738 27.6971 1.25482 27.3064C0.942258 26.9157 0.766663 26.3858 0.766663 25.8333C0.766663 25.2807 0.942258 24.7508 1.25482 24.3601C1.56738 23.9694 1.9913 23.7499 2.43333 23.7499H12.9C13.342 23.7499 13.7659 23.9694 14.0785 24.3601C14.3911 24.7508 14.5667 25.2807 14.5667 25.8333C14.5667 26.3858 14.3911 26.9157 14.0785 27.3064C13.7659 27.6971 13.342 27.9166 12.9 27.9166Z" fill="white"/>
</svg>
