<svg width="34" height="34" viewBox="0 0 34 34" fill="none" xmlns="http://www.w3.org/2000/svg">
<path d="M18.0233 0.683371C17.7308 0.45578 17.3707 0.332214 17 0.332214C16.6293 0.332214 16.2692 0.45578 15.9767 0.683371L2.26333 11.35C1.66193 11.8179 1.1754 12.417 0.840908 13.1015C0.506414 13.7861 0.332801 14.5381 0.333329 15.3V30.3334C0.333329 31.2174 0.684519 32.0653 1.30964 32.6904C1.93476 33.3155 2.78261 33.6667 3.66666 33.6667H10.3333C11.2174 33.6667 12.0652 33.3155 12.6904 32.6904C13.3155 32.0653 13.6667 31.2174 13.6667 30.3334V20.3334H20.3333V30.3334C20.3333 31.2174 20.6845 32.0653 21.3096 32.6904C21.9348 33.3155 22.7826 33.6667 23.6667 33.6667H30.3333C31.2174 33.6667 32.0652 33.3155 32.6904 32.6904C33.3155 32.0653 33.6667 31.2174 33.6667 30.3334V15.3C33.6668 14.5378 33.4927 13.7857 33.1576 13.1011C32.8225 12.4165 32.3353 11.8175 31.7333 11.35L18.0233 0.683371Z" fill="url(#paint0_linear)"/>
<defs>
<linearGradient id="paint0_linear" x1="17" y1="0.332214" x2="17" y2="33.6667" gradientUnits="userSpaceOnUse">
<stop stop-color="#FF3465" stop-opacity="0.8"/>
<stop offset="1" stop-color="#D33E62"/>
</linearGradient>
</defs>
</svg>
