<svg width="30" height="32" viewBox="0 0 30 32" fill="none" xmlns="http://www.w3.org/2000/svg">
<circle cx="15" cy="16" r="15" fill="#212121"/>
<path d="M13.66 11.1C13.5133 11.1 13.3933 11.0533 13.3 10.96C13.2067 10.8667 13.16 10.7467 13.16 10.6V8.8C13.16 8.65333 13.2067 8.53333 13.3 8.44C13.3933 8.34667 13.5133 8.3 13.66 8.3H16.06C16.2067 8.3 16.3267 8.34667 16.42 8.44C16.5133 8.53333 16.56 8.65333 16.56 8.8V10.6C16.56 10.7467 16.5133 10.8667 16.42 10.96C16.3267 11.0533 16.2067 11.1 16.06 11.1H13.66ZM13.68 23C13.5333 23 13.4133 22.9533 13.32 22.86C13.2267 22.7667 13.18 22.6467 13.18 22.5V13.1C13.18 12.9533 13.2267 12.8333 13.32 12.74C13.4133 12.6467 13.5333 12.6 13.68 12.6H16.04C16.1867 12.6 16.3067 12.6467 16.4 12.74C16.4933 12.8333 16.54 12.9533 16.54 13.1V22.5C16.54 22.6333 16.4933 22.7533 16.4 22.86C16.3067 22.9533 16.1867 23 16.04 23H13.68Z" fill="white"/>
</svg>
