<svg width="12" height="18" viewBox="0 0 12 18" fill="none" xmlns="http://www.w3.org/2000/svg">
<path d="M11.8333 6.50001C11.8333 5.73396 11.6825 4.97542 11.3893 4.26769C11.0961 3.55995 10.6665 2.91689 10.1248 2.37522C9.58312 1.83354 8.94005 1.40386 8.23232 1.11071C7.52459 0.817555 6.76605 0.666672 6 0.666672C5.23396 0.666672 4.47541 0.817555 3.76768 1.11071C3.05995 1.40386 2.41689 1.83354 1.87521 2.37522C1.33354 2.91689 0.903856 3.55995 0.610704 4.26769C0.317551 4.97542 0.166668 5.73396 0.166668 6.50001C0.166668 7.65584 0.508335 8.73084 1.0875 9.63751H1.08083C3.0475 12.7167 6 17.3333 6 17.3333L10.9192 9.63751H10.9133C11.5137 8.70115 11.833 7.61229 11.8333 6.50001ZM6 9.00001C5.33696 9.00001 4.70108 8.73661 4.23223 8.26777C3.76339 7.79893 3.5 7.16305 3.5 6.50001C3.5 5.83696 3.76339 5.20108 4.23223 4.73224C4.70108 4.2634 5.33696 4.00001 6 4.00001C6.66304 4.00001 7.29893 4.2634 7.76777 4.73224C8.23661 5.20108 8.5 5.83696 8.5 6.50001C8.5 7.16305 8.23661 7.79893 7.76777 8.26777C7.29893 8.73661 6.66304 9.00001 6 9.00001Z" fill="#212121" fill-opacity="0.6"/>
</svg>
