<svg width="31" height="27" viewBox="0 0 31 27" fill="none" xmlns="http://www.w3.org/2000/svg">
<path d="M29.5479 5.69336C29.0897 4.63255 28.4291 3.67125 27.603 2.86328C26.7763 2.0529 25.8016 1.40891 24.7319 0.96631C23.6227 0.505544 22.433 0.269698 21.2319 0.272462C19.5469 0.272462 17.9028 0.733888 16.4741 1.60547C16.1323 1.81397 15.8076 2.04297 15.5 2.29248C15.1924 2.04297 14.8677 1.81397 14.5259 1.60547C13.0972 0.733888 11.4531 0.272462 9.76807 0.272462C8.55469 0.272462 7.37891 0.504884 6.26807 0.96631C5.19482 1.41065 4.22754 2.04981 3.39697 2.86328C2.56981 3.67034 1.90906 4.63186 1.45215 5.69336C0.977051 6.79736 0.734375 7.96973 0.734375 9.17627C0.734375 10.3145 0.966797 11.5005 1.42822 12.707C1.81445 13.7153 2.36816 14.7612 3.07568 15.8174C4.19678 17.4888 5.73828 19.2319 7.65234 20.999C10.8242 23.9282 13.9653 25.9517 14.0986 26.0337L14.9087 26.5532C15.2676 26.7822 15.729 26.7822 16.0879 26.5532L16.898 26.0337C17.0313 25.9482 20.1689 23.9282 23.3442 20.999C25.2583 19.2319 26.7998 17.4888 27.9209 15.8174C28.6284 14.7612 29.1855 13.7153 29.5684 12.707C30.0298 11.5005 30.2622 10.3145 30.2622 9.17627C30.2656 7.96973 30.023 6.79736 29.5479 5.69336Z" fill="white"/>
</svg>
