<svg width="40" height="40" viewBox="0 0 40 40" fill="none" xmlns="http://www.w3.org/2000/svg">
<path d="M34.3812 26.6648C34.2515 26.5086 34.1242 26.3523 33.9992 26.2016C32.2805 24.1227 31.2406 22.868 31.2406 16.9828C31.2406 13.9359 30.5117 11.4359 29.075 9.56094C28.0156 8.17578 26.5836 7.125 24.6961 6.34844C24.6718 6.33493 24.6501 6.3172 24.632 6.29609C23.9531 4.02266 22.0953 2.5 20 2.5C17.9047 2.5 16.0476 4.02266 15.3687 6.29375C15.3506 6.31408 15.3292 6.33125 15.3055 6.34453C10.9008 8.15781 8.76014 11.6367 8.76014 16.9805C8.76014 22.868 7.72186 24.1227 6.00155 26.1992C5.87655 26.35 5.7492 26.5031 5.61951 26.6625C5.28452 27.0665 5.07227 27.558 5.00788 28.0789C4.9435 28.5997 5.02969 29.1281 5.25623 29.6016C5.73826 30.6172 6.76561 31.2477 7.93827 31.2477H32.0703C33.2375 31.2477 34.2578 30.618 34.7414 29.607C34.9689 29.1335 35.0559 28.6047 34.9921 28.0832C34.9283 27.5617 34.7163 27.0695 34.3812 26.6648Z" fill="white"/>
<path d="M20 37.5C21.1289 37.4991 22.2366 37.1926 23.2054 36.6132C24.1743 36.0337 24.9683 35.2028 25.5031 34.2086C25.5283 34.1609 25.5408 34.1076 25.5392 34.0537C25.5377 33.9998 25.5223 33.9473 25.4945 33.9011C25.4666 33.855 25.4273 33.8168 25.3804 33.7903C25.3335 33.7638 25.2805 33.7499 25.2266 33.75H14.775C14.721 33.7498 14.6679 33.7636 14.6209 33.79C14.5738 33.8164 14.5344 33.8546 14.5065 33.9008C14.4786 33.947 14.4631 33.9996 14.4615 34.0535C14.46 34.1075 14.4724 34.1609 14.4976 34.2086C15.0324 35.2027 15.8263 36.0335 16.795 36.613C17.7637 37.1924 18.8712 37.4989 20 37.5Z" fill="white"/>
</svg>
