<svg width="20" height="20" viewBox="0 0 20 20" fill="none" xmlns="http://www.w3.org/2000/svg">
<path d="M19.4358 17.8975L15.7525 14.225C16.9409 12.711 17.5857 10.8414 17.5833 8.91667C17.5833 7.20257 17.075 5.52695 16.1227 4.10173C15.1704 2.6765 13.8169 1.56567 12.2333 0.909715C10.6496 0.253755 8.90706 0.0821262 7.22589 0.416531C5.54472 0.750937 4.00047 1.57636 2.78841 2.78841C1.57636 4.00047 0.750937 5.54472 0.416531 7.22589C0.0821262 8.90706 0.253755 10.6496 0.909715 12.2333C1.56567 13.8169 2.6765 15.1704 4.10173 16.1227C5.52695 17.075 7.20257 17.5833 8.91667 17.5833C10.8414 17.5857 12.711 16.9409 14.225 15.7525L17.8975 19.4358C17.9982 19.5374 18.118 19.618 18.25 19.673C18.3821 19.728 18.5237 19.7563 18.6667 19.7563C18.8097 19.7563 18.9513 19.728 19.0833 19.673C19.2153 19.618 19.3351 19.5374 19.4358 19.4358C19.5374 19.3351 19.618 19.2153 19.673 19.0833C19.728 18.9513 19.7563 18.8097 19.7563 18.6667C19.7563 18.5237 19.728 18.3821 19.673 18.25C19.618 18.118 19.5374 17.9982 19.4358 17.8975ZM2.41667 8.91667C2.41667 7.63109 2.79789 6.37438 3.51212 5.30546C4.22635 4.23655 5.24151 3.40342 6.42923 2.91145C7.61695 2.41948 8.92388 2.29076 10.1848 2.54157C11.4456 2.79237 12.6038 3.41144 13.5129 4.32048C14.4219 5.22952 15.041 6.38771 15.2918 7.64858C15.5426 8.90946 15.4139 10.2164 14.9219 11.4041C14.4299 12.5918 13.5968 13.607 12.5279 14.3212C11.459 15.0355 10.2022 15.4167 8.91667 15.4167C7.19276 15.4167 5.53946 14.7319 4.32048 13.5129C3.10149 12.2939 2.41667 10.6406 2.41667 8.91667Z" fill="white"/>
</svg>
