<svg width="15" height="14" viewBox="0 0 15 14" fill="none" xmlns="http://www.w3.org/2000/svg">
<path d="M14.1667 5.99166C14.3215 5.8763 14.4364 5.71536 14.4952 5.53142C14.5539 5.34747 14.5537 5.14974 14.4944 4.96596C14.4351 4.78217 14.3198 4.62155 14.1647 4.5066C14.0095 4.39165 13.8222 4.32815 13.6292 4.325L9.87917 4.18333C9.86073 4.18206 9.84305 4.17548 9.82827 4.16439C9.81348 4.1533 9.80222 4.13817 9.79583 4.12083L8.5 0.620828C8.43489 0.442762 8.31664 0.289002 8.16125 0.180368C8.00586 0.0717345 7.82085 0.0134735 7.63125 0.0134735C7.44165 0.0134735 7.25664 0.0717345 7.10125 0.180368C6.94586 0.289002 6.82761 0.442762 6.7625 0.620828L5.47083 4.13333C5.46445 4.15067 5.45318 4.1658 5.4384 4.17689C5.42361 4.18798 5.40594 4.19456 5.3875 4.19583L1.6375 4.3375C1.44442 4.34065 1.25717 4.40415 1.102 4.5191C0.946828 4.63405 0.831525 4.79467 0.772254 4.97846C0.712983 5.16224 0.712717 5.35997 0.771493 5.54392C0.830269 5.72786 0.945141 5.8888 1.1 6.00416L4.04167 8.31666C4.05639 8.32825 4.06739 8.34389 4.07332 8.36167C4.07924 8.37944 4.07983 8.39856 4.075 8.41666L3.0625 12.0042C3.01003 12.1868 3.01512 12.3813 3.07706 12.561C3.139 12.7406 3.25479 12.8969 3.40869 13.0084C3.56258 13.12 3.7471 13.1814 3.93715 13.1844C4.12719 13.1874 4.31354 13.1317 4.47083 13.025L7.57917 10.9417C7.59448 10.9311 7.61264 10.9254 7.63125 10.9254C7.64986 10.9254 7.66802 10.9311 7.68333 10.9417L10.7917 13.025C10.9468 13.1353 11.1325 13.1946 11.3229 13.1946C11.5133 13.1946 11.699 13.1353 11.8542 13.025C12.0081 12.9145 12.124 12.759 12.1859 12.5799C12.2479 12.4009 12.2528 12.207 12.2 12.025L11.1792 8.425C11.1738 8.40692 11.1741 8.38762 11.18 8.36973C11.186 8.35183 11.1973 8.33621 11.2125 8.325L14.1667 5.99166Z" fill="#FFB800"/>
</svg>
