<svg width="6" height="26" viewBox="0 0 6 26" fill="none" xmlns="http://www.w3.org/2000/svg">
<path d="M5.8125 22.375C5.8125 23.1209 5.51618 23.8363 4.98874 24.3637C4.46129 24.8912 3.74592 25.1875 3 25.1875C2.25408 25.1875 1.53871 24.8912 1.01126 24.3637C0.483816 23.8363 0.1875 23.1209 0.1875 22.375C0.1875 21.6291 0.483816 20.9137 1.01126 20.3863C1.53871 19.8588 2.25408 19.5625 3 19.5625C3.74592 19.5625 4.46129 19.8588 4.98874 20.3863C5.51618 20.9137 5.8125 21.6291 5.8125 22.375ZM5.8125 13C5.8125 13.7459 5.51618 14.4613 4.98874 14.9887C4.46129 15.5162 3.74592 15.8125 3 15.8125C2.25408 15.8125 1.53871 15.5162 1.01126 14.9887C0.483816 14.4613 0.1875 13.7459 0.1875 13C0.1875 12.2541 0.483816 11.5387 1.01126 11.0113C1.53871 10.4838 2.25408 10.1875 3 10.1875C3.74592 10.1875 4.46129 10.4838 4.98874 11.0113C5.51618 11.5387 5.8125 12.2541 5.8125 13ZM5.8125 3.625C5.8125 4.37092 5.51618 5.08629 4.98874 5.61374C4.46129 6.14118 3.74592 6.4375 3 6.4375C2.25408 6.4375 1.53871 6.14118 1.01126 5.61374C0.483816 5.08629 0.1875 4.37092 0.1875 3.625C0.1875 2.87908 0.483816 2.16371 1.01126 1.63626C1.53871 1.10882 2.25408 0.8125 3 0.8125C3.74592 0.8125 4.46129 1.10882 4.98874 1.63626C5.51618 2.16371 5.8125 2.87908 5.8125 3.625Z" fill="white" fill-opacity="0.9"/>
</svg>
