<svg width="36" height="36" viewBox="0 0 36 36" fill="none" xmlns="http://www.w3.org/2000/svg">
<path d="M31.4363 29.1625C33.2314 27.0026 34.48 24.4422 35.0763 21.6977C35.6726 18.9533 35.5991 16.1056 34.8621 13.3955C34.1251 10.6855 32.7462 8.1928 30.8421 6.12836C28.9379 4.06392 26.5646 2.48846 23.9228 1.53524C21.2811 0.582032 18.4486 0.279113 15.665 0.652112C12.8813 1.02511 10.2285 2.06306 7.9309 3.67814C5.63327 5.29323 3.75844 7.43794 2.46499 9.93085C1.17155 12.4238 0.497547 15.1915 0.500007 18C0.500951 22.0827 1.93969 26.0347 4.56376 29.1625L4.53876 29.1838C4.62626 29.2888 4.72626 29.3788 4.81626 29.4825C4.92876 29.6113 5.05001 29.7325 5.16626 29.8575C5.51626 30.2375 5.87626 30.6025 6.25376 30.945C6.36876 31.05 6.48751 31.1475 6.60376 31.2475C7.00376 31.5925 7.41501 31.92 7.84126 32.225C7.89626 32.2625 7.94626 32.3113 8.00126 32.35V32.335C10.9289 34.3952 14.4214 35.5009 18.0013 35.5009C21.5811 35.5009 25.0736 34.3952 28.0013 32.335V32.35C28.0563 32.3113 28.105 32.2625 28.1613 32.225C28.5863 31.9188 28.9988 31.5925 29.3988 31.2475C29.515 31.1475 29.6338 31.0488 29.7488 30.945C30.1263 30.6013 30.4863 30.2375 30.8363 29.8575C30.9525 29.7325 31.0725 29.6113 31.1863 29.4825C31.275 29.3788 31.3763 29.2888 31.4638 29.1825L31.4363 29.1625ZM18 8.00001C19.1125 8.00001 20.2001 8.32991 21.1251 8.94799C22.0501 9.56608 22.7711 10.4446 23.1968 11.4724C23.6226 12.5003 23.734 13.6313 23.5169 14.7224C23.2999 15.8135 22.7642 16.8158 21.9775 17.6025C21.1908 18.3892 20.1885 18.9249 19.0974 19.1419C18.0062 19.359 16.8752 19.2476 15.8474 18.8218C14.8196 18.3961 13.9411 17.6751 13.323 16.7501C12.7049 15.8251 12.375 14.7375 12.375 13.625C12.375 12.1332 12.9676 10.7024 14.0225 9.64754C15.0774 8.59264 16.5082 8.00001 18 8.00001ZM8.00876 29.1625C8.03044 27.5212 8.69744 25.9545 9.86545 24.8012C11.0335 23.6479 12.6086 23.0009 14.25 23H21.75C23.3914 23.0009 24.9665 23.6479 26.1346 24.8012C27.3026 25.9545 27.9696 27.5212 27.9913 29.1625C25.2498 31.6329 21.6903 33.0001 18 33.0001C14.3097 33.0001 10.7502 31.6329 8.00876 29.1625Z" fill="#212121" fill-opacity="0.7"/>
</svg>
